# xmcd CD database file
#
# Track frame offsets:
#	150
#	45004
#	49563
#	78610
#	111239
#	116119
#	132881
#	156344
#	158504
#	165310
#	210681
#	246295
#	270628
#
# Disc length: 4115 seconds
#
# Revision: 0
# Processed by: cddbd v1.5PL3 Copyright (c) Steve Scherf et al.
# Submitted via: CDex 1.51
#
DISCID=a410110d
DTITLE=Jaco Pastorius - Fretless Pandemonium Disc 1
DYEAR=1900
DGENRE=Jazz
TTITLE0=Vashker
TTITLE1=Poconos
TTITLE2=Donkey
TTITLE3=Vampira
TTITLE4=Overtoned
TTITLE5=Jaco
TTITLE6=Batterie
TTITLE7=King Kong
TTITLE8=Blood
TTITLE9=Dania
TTITLE10=I Shot The Sheriff
TTITLE11=Continuum
TTITLE12=Promised Land
EXTD=
EXTT0=
EXTT1=
EXTT2=
EXTT3=
EXTT4=
EXTT5=
EXTT6=
EXTT7=
EXTT8=
EXTT9=
EXTT10=
EXTT11=
EXTT12=
PLAYORDER=
